# xmcd
#
# Track frame offsets: 
#        150
#        16828
#        33491
#        54208
#        73699
#        95307
#        116573
#        132861
#        152491
#        172574
#
# Disc length: 2580 seconds
#
# Revision: 2
# Processed by: cddbd v1.5.2PL0 Copyright (c) Steve Scherf et al.
# Submitted via: ExactAudioCopy v1.3
#
DISCID=6c0a120a
DTITLE=陳慧嫻 - Evolve
DYEAR=2015
DGENRE=Pop
TTITLE0=Joe Le Taxi
TTITLE1=玻璃窗的愛
TTITLE2=夜機
TTITLE3=去吧
TTITLE4=痴情意外
TTITLE5=凌晨舊戲
TTITLE6=飄雪
TTITLE7=歸來吧
TTITLE8=與淚抱擁
TTITLE9=儍女
EXTD=
EXTT0=
EXTT1=
EXTT2=
EXTT3=
EXTT4=
EXTT5=
EXTT6=
EXTT7=
EXTT8=
EXTT9=
PLAYORDER=
